<svg
  id="Art"
  xmlns="http://www.w3.org/2000/svg"
  xmlns:xlink="http://www.w3.org/1999/xlink"
  viewBox="0 0 234 278"
>
  <defs>
    <style>
      .cls-1,
      .cls-5,
      .cls-6,
      .cls-7 {
        fill: none;
      }
      .cls-2 {
        clip-path: url(#clip-path);
      }
      .cls-3 {
        fill: #fff;
      }
      .cls-4 {
        fill: #8c8c8c;
      }
      .cls-5,
      .cls-6 {
        stroke: #8c8c8c;
      }
      .cls-5,
      .cls-6,
      .cls-7 {
        stroke-miterlimit: 10;
      }
      .cls-6 {
        stroke-linecap: round;
        stroke-width: 3px;
      }
      .cls-7 {
        stroke: #dc3545;
      }
      .cls-8 {
        fill: #feeb57;
      }
      .cls-10,
      .cls-9 {
        fill: #333;
      }
      .cls-10 {
        fill-rule: evenodd;
      }
    </style>
    <clipPath id="clip-path"><rect class="cls-1" y="1" width="234" height="276" /></clipPath>
  </defs>
  <title>Layout</title>
  <g class="cls-2">
    <path
      class="cls-3"
      d="M35,235.5A34.5,34.5,0,0,1,.5,201V-210a32.4,32.4,0,0,1,32.2-32.5H201.3A32.4,32.4,0,0,1,233.5-210V201A34.5,34.5,0,0,1,199,235.5Z"
    />
    <path
      class="cls-4"
      d="M201.3-242A31.9,31.9,0,0,1,233-210V201a34,34,0,0,1-34,34H35A34,34,0,0,1,1,201V-210a31.9,31.9,0,0,1,31.7-32H201.3m0-1H32.7A32.8,32.8,0,0,0,0-210V201a35,35,0,0,0,35,35H199a35,35,0,0,0,35-35V-210a32.8,32.8,0,0,0-32.7-33Z"
    />
    <path
      class="cls-5"
      d="M199.2-238.5H34.8A30.5,30.5,0,0,0,4.5-207.8V200.8a30.5,30.5,0,0,0,30.3,30.7H199.2a30.5,30.5,0,0,0,30.3-30.7V-207.8A30.5,30.5,0,0,0,199.2-238.5Z"
    />
    <line class="cls-6" x1="85.5" y1="214.5" x2="146.5" y2="214.5" />
    <path
      class="cls-5"
      d="M179.1-228.5a4.2,4.2,0,0,0-3.6,1.1,3.9,3.9,0,0,0-.8,2.8,10.6,10.6,0,0,1-.4,3.1,11.7,11.7,0,0,1-3,5.7,10.4,10.4,0,0,1-5.6,2.7,27.8,27.8,0,0,1-6.1.5H76.6a27.7,27.7,0,0,1-6.1-.5,10.4,10.4,0,0,1-5.6-2.7,11.7,11.7,0,0,1-3-5.7,10.6,10.6,0,0,1-.4-3.1,3.8,3.8,0,0,0-.8-2.8,4.3,4.3,0,0,0-3.6-1.2H34A19.5,19.5,0,0,0,14.5-209V199.5a22,22,0,0,0,22,22h161a22,22,0,0,0,22-22V-209A19.5,19.5,0,0,0,200-228.5Z"
    />
    <line class="cls-5" x1="220" y1="172.5" x2="14" y2="172.5" />
    <line class="cls-7" x1="111" y1="256" x2="123" y2="268" />
    <line class="cls-7" x1="123" y1="256" x2="111" y2="268" />
    <path class="cls-7" d="M117,276a14,14,0,1,1,14-14,14,14,0,0,1-14,14" />
    <rect class="cls-8" x="18.5" y="179" width="20" height="20" rx="10" ry="10" />
    <path
      class="cls-9"
      d="M28,178.5v11.7h.8V178.5l2.5,2.5.6-.5L28.3,177l-3.5,3.5.6.5Zm2.3,4.4v.8H35v13.2H21.8V183.6h4.7v-.8H21v14.7H35.7V182.8Z"
    />
    <polygon
      class="cls-10"
      points="181.8 187.5 181.8 181.3 180.7 181.3 180.7 187.5 174.5 187.5 174.5 188.6 180.7 188.6 180.7 194.8 181.8 194.8 181.8 188.6 188 188.6 188 187.5 181.8 187.5"
    />
    <path
      class="cls-9"
      d="M164.8,179.7v-.8a1.6,1.6,0,0,0-1.5-1.6h-3.9a1.6,1.6,0,0,0-1.6,1.6v.8h-3.9v.8h.8l.8,14.8a1.7,1.7,0,0,0,1.6,1.5h8.4a1.7,1.7,0,0,0,1.6-1.5l.8-14.8h.8v-.8Zm-6.2-.8a.8.8,0,0,1,.8-.8h3.9a.8.8,0,0,1,.8.8v.8h-5.4Zm7.7,16.3a.9.9,0,0,1-.9.8h-8.4a.9.9,0,0,1-.9-.8l-.8-14.7h11.6ZM161.7,182h-.8v12.4h.8Zm-2.3,12.4-.8-12.4h-.8l.8,12.4Zm5.4-12.4H164l-.8,12.4h.8Z"
    />
    <path
      class="cls-9"
      d="M211.9,180.9l-7.7,7.6-.2-.2-.5-.5,7.7-7.6-.3-.3-.3-.3-3.8,3.8-3.8,3.8-.4,1.4-.4,1.4h0l2.8-.8,7.7-7.6-.4-.4Zm-1.8,14.3H196.9V182H207l.8-.8H196.2V196h14.7V184.4l-.8.8Zm3.7-15.7-.2-.3-.7-.7a1,1,0,0,0-1.4,0l-.3.4-.3.3,2,2,.7-.6.2-.3A1,1,0,0,0,213.9,179.5Z"
    />
    <path
      class="cls-9"
      d="M53.6,190.2v.4a5.2,5.2,0,0,1-5.4,5.5,5.5,5.5,0,0,1,0-11.1V188l6-4.2-6-3.1v2.8a7.1,7.1,0,1,0,7,7.1v-.4Z"
    />
    <path
      class="cls-9"
      d="M77.1,182.4H68.8c-.4,0-.7-.8-.9-1.1h0c-.2-.3-.5-.4-1.1-.4H63.4l-.6.2a1.1,1.1,0,0,0-.5.9v11.7a1.1,1.1,0,0,0,.2.6,1.2,1.2,0,0,0,1,.5h14l.7-.3a1.1,1.1,0,0,0,.4-.9v-9.8a1.3,1.3,0,0,0-1.4-1.5m-8.5.8h8.9a.5.5,0,0,1,.2.4V185l-.5-.2H63.5l-.5.2v-3a.4.4,0,0,1,.4-.4h3.5a.7.7,0,0,1,.6.4l.3.5a1.1,1.1,0,0,0,.9.6m8.3,10.9H63.8a.7.7,0,0,1-.8-.8v-7a.8.8,0,0,1,.2-.6.8.8,0,0,1,.6-.2H76.9a.7.7,0,0,1,.8.8v7a.7.7,0,0,1-.3.7h-.5"
    />
    <path class="cls-9" d="M110.8,196.8h3.9V182h-3.9ZM122.4,182h-3.9v14.7h3.9Z" />
    <path
      class="cls-9"
      d="M138.5,188.6l-7.6-4.7c-.2-.1-1-.8-1,.7v9.5c0,1.5.8.8,1,.7l7.6-4.7c.4-.3.6-.4.6-.7S138.9,188.8,138.5,188.6Zm9.3,0-7.6-4.7c-.2-.1-1-.8-1,.7v9.5c0,1.5.8.8,1,.7l7.6-4.7c.4-.3.6-.4.6-.7S148.2,188.8,147.8,188.6Z"
    />
    <path
      class="cls-9"
      d="M102.4,183.4l-7.6,4.7c-.4.3-.6.3-.6.6s.2.4.6.7l7.6,4.7c.3.2,1,.9,1-.7v-9.4C103.5,182.6,102.6,183.3,102.4,183.4Zm-9.3,0-7.6,4.7c-.4.3-.6.3-.6.6s.2.4.6.7l7.6,4.7c.3.2,1,.9,1-.7v-9.4C94.2,182.6,93.3,183.3,93.1,183.4Z"
    />
    <line class="cls-5" y1="1.5" x2="234" y2="1.5" />
  </g>
</svg>
