<svg
  id="Art"
  xmlns="http://www.w3.org/2000/svg"
  xmlns:xlink="http://www.w3.org/1999/xlink"
  viewBox="0 0 234 278"
>
  <defs>
    <style>
      .cls-1,
      .cls-3,
      .cls-6,
      .cls-7 {
        fill: none;
      }
      .cls-2 {
        clip-path: url(#clip-path);
      }
      .cls-3 {
        stroke: #28a745;
      }
      .cls-3,
      .cls-6,
      .cls-7 {
        stroke-miterlimit: 10;
      }
      .cls-4 {
        fill: #fff;
      }
      .cls-5 {
        fill: #8c8c8c;
      }
      .cls-6,
      .cls-7 {
        stroke: #8c8c8c;
      }
      .cls-7 {
        stroke-linecap: round;
        stroke-width: 3px;
      }
      .cls-8 {
        fill: #feeb57;
      }
      .cls-10,
      .cls-9 {
        fill: #333;
      }
      .cls-10 {
        fill-rule: evenodd;
      }
    </style>
    <clipPath id="clip-path"><rect class="cls-1" y="2" width="234" height="276" /></clipPath>
  </defs>
  <title>Layout</title>
  <g class="cls-2">
    <polyline class="cls-3" points="107.8 262 113.9 268.1 124.2 257.8" />
    <path class="cls-3" d="M116,276a14,14,0,1,1,14-14,14,14,0,0,1-14,14" />
    <path
      class="cls-4"
      d="M35,235.5A34.5,34.5,0,0,1,.5,201V-210a32.4,32.4,0,0,1,32.2-32.5H201.3A32.4,32.4,0,0,1,233.5-210V201A34.5,34.5,0,0,1,199,235.5Z"
    />
    <path
      class="cls-5"
      d="M201.3-242A31.9,31.9,0,0,1,233-210V201a34,34,0,0,1-34,34H35A34,34,0,0,1,1,201V-210a31.9,31.9,0,0,1,31.7-32H201.3m0-1H32.7A32.8,32.8,0,0,0,0-210V201a35,35,0,0,0,35,35H199a35,35,0,0,0,35-35V-210a32.8,32.8,0,0,0-32.7-33Z"
    />
    <path
      class="cls-6"
      d="M199.2-238.5H34.8A30.5,30.5,0,0,0,4.5-207.8V200.8a30.5,30.5,0,0,0,30.3,30.7H199.2a30.5,30.5,0,0,0,30.3-30.7V-207.8A30.5,30.5,0,0,0,199.2-238.5Z"
    />
    <line class="cls-7" x1="85.5" y1="214.5" x2="146.5" y2="214.5" />
    <path
      class="cls-6"
      d="M179.1-228.5a4.2,4.2,0,0,0-3.6,1.1,3.9,3.9,0,0,0-.8,2.8,10.6,10.6,0,0,1-.4,3.1,11.7,11.7,0,0,1-3,5.7,10.4,10.4,0,0,1-5.6,2.7,27.8,27.8,0,0,1-6.1.5H76.6a27.7,27.7,0,0,1-6.1-.5,10.4,10.4,0,0,1-5.6-2.7,11.7,11.7,0,0,1-3-5.7,10.6,10.6,0,0,1-.4-3.1,3.8,3.8,0,0,0-.8-2.8,4.3,4.3,0,0,0-3.6-1.2H34A19.5,19.5,0,0,0,14.5-209V199.5a22,22,0,0,0,22,22h161a22,22,0,0,0,22-22V-209A19.5,19.5,0,0,0,200-228.5Z"
    />
    <line class="cls-6" x1="220" y1="172.5" x2="14" y2="172.5" />
  </g>
  <line class="cls-6" y1="1.5" x2="234" y2="1.5" />
  <rect class="cls-8" x="15" y="173" width="32" height="32" rx="16" ry="16" />
  <path
    class="cls-9"
    d="M30.7,180.2v9.5h.6v-9.5l2.1,2,.4-.4L31,179l-2.8,2.8.4.4Zm1.9,3.8v.6h3.8v10.7H25.6V184.7h3.8V184H25v12H37V184Z"
  />
  <polygon
    class="cls-10"
    points="117 187 117 182 116 182 116 187 111 187 111 188 116 188 116 193 117 193 117 188 122 188 122 187 117 187"
  />
  <path
    class="cls-9"
    d="M201.4,181.1H197v-.6a.6.6,0,0,1,.6-.6h3.1a.6.6,0,0,1,.6.6,1.3,1.3,0,0,0-1.3-1.3h-2.5a1.3,1.3,0,0,0-1.3,1.3v.6h-3.1v.6h.6l.6,12a1.3,1.3,0,0,0,1.3,1.2h6.4a1.3,1.3,0,0,0,1.3-1.2l.6-12h.6v-.6Zm1.6,12.6a.7.7,0,0,1-.7.6h-6.8a.7.7,0,0,1-.7-.6l-.6-11.9h9.4ZM198.9,183h-.6v10.1h.6Zm-1.6,10.1-.6-10.1h-.6l.6,10.1Zm4.4-10.1h-.6l-.6,10.1h.6Z"
  />
</svg>
