<svg width="29" height="29" viewBox="0 0 29 29" fill="none" xmlns="http://www.w3.org/2000/svg">
<path fill-rule="evenodd" clip-rule="evenodd" d="M19.6662 2.02763C17.1994 1.00585 14.485 0.738506 11.8663 1.25941C9.24754 1.78031 6.84207 3.06605 4.95406 4.95406C3.06605 6.84207 1.7803 9.24754 1.2594 11.8663C0.738504 14.485 1.00585 17.1994 2.02764 19.6662C3.04942 22.133 4.77974 24.2414 6.99981 25.7248C9.21987 27.2082 11.83 28 14.5 28C18.0804 28 21.5142 26.5777 24.0459 24.0459C26.5777 21.5142 28 18.0804 28 14.5C28 11.83 27.2082 9.21986 25.7248 6.9998C24.2414 4.77974 22.133 3.04941 19.6662 2.02763ZM11.6712 0.278621C14.4839 -0.280865 17.3994 0.00627971 20.0489 1.10375C22.6984 2.20122 24.963 4.05972 26.5563 6.44423C28.1496 8.82874 29 11.6322 29 14.5C29 18.3456 27.4723 22.0338 24.7531 24.7531C22.0338 27.4723 18.3456 29 14.5 29C11.6322 29 8.82875 28.1496 6.44424 26.5563C4.05972 24.963 2.20123 22.6984 1.10376 20.0489C0.00628567 17.3994 -0.280867 14.4839 0.278619 11.6712C0.838105 8.85847 2.21909 6.27482 4.24696 4.24696C6.27482 2.2191 8.85847 0.838106 11.6712 0.278621Z" fill="#DC3545"/>
<path fill-rule="evenodd" clip-rule="evenodd" d="M23 15H6V14H23V15Z" fill="#DC3545"/>
</svg>
