<svg viewBox="0 0 512 512" fill="none" xmlns="http://www.w3.org/2000/svg">
<path d="M437.02 74.9805C388.668 26.6289 324.379 0 256 0C187.621 0 123.332 26.6289 74.9805 74.9805C26.6289 123.332 0 187.621 0 256C0 324.379 26.6289 388.668 74.9805 437.02C123.332 485.371 187.621 512 256 512C324.379 512 388.668 485.371 437.02 437.02C485.371 388.668 512 324.379 512 256C512 187.621 485.371 123.332 437.02 74.9805ZM256 472C136.898 472 40 375.102 40 256C40 136.898 136.898 40 256 40C375.102 40 472 136.898 472 256C472 375.102 375.102 472 256 472Z" fill="#DC3545"/>
<path d="M146 236H366V276H146V236Z" fill="#DC3545"/>
</svg>
