<svg version="1.1"
	 xmlns="http://www.w3.org/2000/svg" xmlns:xlink="http://www.w3.org/1999/xlink" xmlns:a="http://ns.adobe.com/AdobeSVGViewerExtensions/3.0/"
	 x="0px" y="0px" width="800px" height="170px" viewBox="-8.12 -5.458 800 170"
	 overflow="visible" enable-background="new -8.12 -5.458 800 170" xml:space="preserve">
<defs>
</defs>
<path fill-rule="evenodd" clip-rule="evenodd" fill="#A5A9AC" d="M102.46,157.457c55.571,0,101.052-34.305,102.423-76.775h-23.528
	c-3.077,30.215-31.516,54.659-67.717,58.894V76.753H92.483v62.955c-38.938-4.048-69.211-31.446-69.211-64.463
	c0-35.539,35.084-64.571,78.28-64.967V0C45.529,0.372,0,35.588,0,78.722C0,122.081,46.023,157.457,102.46,157.457z"/>
<path fill-rule="evenodd" clip-rule="evenodd" fill="#B2B5B7" d="M113.639,77.211v-0.458H92.483v62.955
	c-38.938-4.048-69.211-31.446-69.211-64.463c0-35.539,35.084-64.571,78.28-64.967l-6.007-4.938
	C48.649,8.146,11.482,39.277,11.482,77.057c0,37.382,36.392,68.253,82.585,71.621c3.497-0.095,6.703-0.851,9.297-3.01
	c0.101,0.086,0.202,0.162,0.302,0.248v-58.28L113.639,77.211z"/>
<path fill-rule="evenodd" clip-rule="evenodd" fill="#FBB041" d="M203.54,65.873c-7.278-33.819-42.776-60.494-87.178-65.153v10.555
	c33.33,4.875,59.546,26.969,64.453,54.598H203.54z"/>
<path fill-rule="evenodd" clip-rule="evenodd" fill="#A5A9AC" d="M275.822,58.629v8.062h-16.24c-2.891,0-5.172,0.685-6.884,2.057
	c-1.696,1.366-2.785,2.907-3.264,4.583c-0.484,1.685-0.824,3.229-1.047,4.641c-0.208,1.423-0.329,2.833-0.329,4.231v0.853v0.714
	c0,0.609,0.026,1.283,0.074,2.001c0.047,0.721,0.122,1.594,0.255,2.617c0.133,1.031,0.425,2.131,0.888,3.308
	c0.462,1.181,1.095,2.269,1.919,3.27c1.09,1.142,2.27,1.845,3.535,2.125c1.253,0.289,2.886,0.432,4.896,0.432h16.196v8.182h-16.579
	c-3.131,0-5.79-0.278-7.979-0.821c-2.211-0.543-4.417-1.64-6.634-3.296c-2.653-2.278-4.55-5.005-5.651-8.195
	c-1.095-3.175-1.647-6.63-1.647-10.335v-2.812c0-1.705,0.17-3.37,0.504-4.989c0.361-1.606,0.803-3.139,1.318-4.577
	c0.526-1.44,1.138-2.703,1.829-3.798c0.707-1.087,1.732-2.31,3.083-3.668c1.355-1.347,2.998-2.347,4.912-2.979
	c1.913-0.635,3.72-1.059,5.406-1.277c1.669-0.217,3.36-0.327,5.06-0.327H275.822L275.822,58.629z M305.601,105.703h-12.035
	L277.98,58.629h10.487l10.851,36.211l9.244-36.211h11.646l10.599,36.211l10.095-36.211h10.083l-14.405,47.074h-12.189l-9.951-35.025
	L305.601,105.703L305.601,105.703z M355.559,58.629h10.339v47.074h-10.339V58.629L355.559,58.629z M408.981,58.629h25.999v8.449
	h-24.437c-5.135,0-7.724,2.058-7.724,6.151c0,1.746,0.601,3.017,1.771,3.801c1.143,0.875,2.652,1.308,4.524,1.308h13.022
	c2.535,0,4.773,0.176,6.751,0.521c1.781,0.39,3.631,1.451,5.534,3.181c1.897,1.725,2.839,4.917,2.839,9.586
	c0,1.273-0.097,2.435-0.293,3.506c-0.196,1.065-0.59,2.319-1.169,3.76c-0.597,1.439-1.601,2.718-3.016,3.804
	c-1.419,1.089-3.109,1.857-5.076,2.293c-1.802,0.48-4.098,0.714-6.941,0.714h-26.318v-8.443h24.756c2.439,0,4.326-0.364,5.66-1.08
	c1.33-0.724,1.989-2.089,1.989-4.092v-0.981c-0.128-1.358-0.479-2.343-1.043-2.951c-0.745-0.645-1.583-1.094-2.53-1.312
	c-0.94-0.211-2.073-0.315-3.375-0.315h-11.68c-5.028,0-8.903-1.054-11.641-3.151c-2.732-2.095-4.098-5.605-4.098-10.546
	c0-2.477,0.41-4.711,1.244-6.671c0.834-1.961,1.966-3.476,3.402-4.553c1.43-1.071,3.098-1.815,4.975-2.251
	C403.814,58.871,406.105,58.629,408.981,58.629L408.981,58.629z M453.102,75.124c-0.509,2.105-0.78,4.421-0.78,6.942
	c0,2.493,0.44,5.416,1.285,8.809c0.841,3.386,2.541,5.528,5.072,6.418c2.529,0.886,4.671,1.341,6.421,1.341
	c1.696,0,3.328-0.246,4.9-0.727c3.753-1.357,6.093-4.215,7.007-8.568c0.604-2.224,0.913-4.582,0.913-7.067
	c0-2.536-0.206-4.604-0.632-6.188c-0.398-1.605-0.696-2.61-0.84-3.049c-0.148-0.44-0.479-1.1-0.988-1.995
	c-0.488-0.891-1.197-1.763-2.121-2.595c-0.909-0.819-1.893-1.396-2.912-1.728c-1.027-0.33-1.947-0.559-2.786-0.688
	c-0.829-0.133-1.681-0.2-2.541-0.2c-1.632,0-3.217,0.245-4.785,0.724C456.892,67.778,454.51,70.635,453.102,75.124L453.102,75.124z
	 M443.028,71.794c1-3.442,2.351-6.002,4.062-7.663c1.701-1.664,3.279-2.874,4.715-3.633c1.436-0.772,2.961-1.361,4.544-1.773
	c1.596-0.415,3.025-0.68,4.296-0.82c1.261-0.131,2.717-0.189,4.381-0.189c3.141,0,5.613,0.226,7.43,0.688
	c1.813,0.455,3.062,0.792,3.733,1.005c0.685,0.229,1.637,0.664,2.875,1.35c1.25,0.682,2.339,1.542,3.307,2.589
	c2.228,2.137,3.848,4.922,4.848,8.348c0.999,3.429,1.505,6.923,1.505,10.507c0,3.538-0.506,7.054-1.505,10.569
	c-1,3.518-2.641,6.336-4.932,8.474c-2.309,2.15-4.998,3.585-8.075,4.332c-3.12,0.73-6.129,1.106-9.059,1.106
	c-2.924,0-5.736-0.33-8.445-0.981c-0.915-0.168-1.755-0.401-2.516-0.688c-0.771-0.284-1.717-0.723-2.849-1.331
	c-1.139-0.617-2.28-1.451-3.435-2.531c-1.169-1.063-2.137-2.315-2.945-3.752c-0.812-1.456-1.573-3.437-2.296-5.974
	c-0.718-2.521-1.079-5.65-1.079-9.36C441.588,78.437,442.072,75.017,443.028,71.794L443.028,71.794z M504.898,105.703h-10.025V84.1
	c0-3.274,0.16-6.151,0.462-8.612c0.31-2.466,0.925-5.065,1.871-7.792c0.941-2.72,3.021-4.917,6.252-6.582
	c3.232-1.653,8.101-2.485,14.592-2.485h15.073v8.187h-15.982c-1.931,0-3.706,0.21-5.364,0.659c-1.547,0.479-2.769,1.124-3.704,1.953
	c-0.937,0.825-1.595,1.802-1.994,2.916c-0.394,1.111-0.691,2.153-0.883,3.116c-0.206,0.959-0.297,1.917-0.297,2.879h28.225v8.044
	h-28.225V105.703L504.898,105.703z M560.151,105.703h-10.282V66.941h-15.048v-8.176h40.526v8.176h-15.196V105.703L560.151,105.703z
	 M602.575,105.703l8.85-35.025l9.945,35.025h12.186l14.383-47.074h-10.082L627.782,94.84l-10.601-36.211h-11.656l-9.238,36.211
	l-10.86-36.211h-10.474l15.587,47.074H602.575L602.575,105.703z M656.647,105.703h-10.474l19.78-47.074h10.467l20.114,47.074
	h-11.009l-4.315-11.264h-20.497L656.647,105.703L656.647,105.703z M663.918,86.136h14.077l-7.136-18.017L663.918,86.136
	L663.918,86.136z M709.756,105.703h-9.887V58.629h24.276c1.228,0,2.487,0.066,3.77,0.189c1.291,0.138,2.727,0.391,4.326,0.763
	c1.595,0.372,3.089,1.247,4.476,2.618c1.403,1.375,2.43,2.96,3.088,4.742c0.56,1.929,0.856,3.888,0.856,5.889
	c0,2.23-0.34,4.236-1,6.029c-0.738,1.841-1.77,3.354-3.13,4.553c-1.355,1.204-3.132,2.062-5.306,2.59l11.588,19.701h-11.072
	l-10.396-18.391h-11.589V105.703L709.756,105.703z M721.87,67.078h-12.114v11.911h12.114c1.786,0,3.281-0.11,4.476-0.327
	c1.201-0.225,2.261-0.787,3.174-1.698c0.787-0.92,1.18-2.246,1.18-3.998c0-2.532-0.771-4.138-2.322-4.847
	C726.819,67.427,724.65,67.078,721.87,67.078L721.87,67.078z M784.511,58.629v8.187h-16.233c-3.53,0-6.273,0.922-8.219,2.779
	c-1.946,1.85-2.909,4.596-2.909,8.218h27.361v8.188h-27.361c0,3.926,0.719,6.685,2.158,8.274c1.446,1.596,2.787,2.533,4.035,2.813
	c1.245,0.289,2.894,0.432,4.935,0.432h16.233v8.182h-16.623c-3.141,0-5.814-0.278-8.025-0.821c-2.202-0.543-4.413-1.64-6.65-3.296
	c-2.664-2.278-4.534-5.005-5.655-8.195c-1.116-3.175-1.675-6.63-1.675-10.335l0.144-2.812c0-1.705,0.175-3.37,0.521-4.989
	c0.357-1.606,0.781-3.139,1.308-4.577c0.521-1.44,1.127-2.703,1.828-3.798c0.707-1.087,1.728-2.31,3.083-3.668
	c1.346-1.347,2.988-2.347,4.907-2.979c1.912-0.635,3.721-1.059,5.401-1.277c1.679-0.217,3.38-0.327,5.074-0.327H784.511z"/>
</svg>
