<svg width="500" height="500" viewBox="0 0 500 500" fill="none" xmlns="http://www.w3.org/2000/svg">
<path fill-rule="evenodd" clip-rule="evenodd" d="M347.348 359.545L140.451 152.648L152.643 140.457L359.539 347.353L347.348 359.545Z" fill="#DC3545"/>
<path fill-rule="evenodd" clip-rule="evenodd" d="M140.451 347.353L347.348 140.457L359.539 152.648L152.643 359.545L140.451 347.353Z" fill="#DC3545"/>
<path fill-rule="evenodd" clip-rule="evenodd" d="M339.073 34.9591C296.542 17.3422 249.742 12.7329 204.591 21.7139C159.44 30.6949 117.967 52.863 85.4148 85.4149C52.863 117.967 30.6949 159.44 21.7139 204.591C12.7328 249.742 17.3423 296.542 34.9592 339.073C52.5762 381.604 82.4093 417.956 120.686 443.531C158.963 469.107 203.965 482.758 250 482.758C311.731 482.758 370.935 458.236 414.585 414.585C458.236 370.935 482.759 311.731 482.759 250C482.759 203.965 469.108 158.963 443.532 120.686C417.956 82.4093 381.604 52.5761 339.073 34.9591ZM201.228 4.80381C249.723 -4.84249 299.989 0.108271 345.671 19.0302C391.352 37.9521 430.397 69.9951 457.867 111.107C485.338 152.22 500 200.555 500 250C500 316.304 473.661 379.893 426.777 426.777C379.893 473.661 316.304 500 250 500C200.555 500 152.22 485.337 111.108 457.867C69.9953 430.397 37.9522 391.352 19.0303 345.671C0.108374 299.989 -4.84253 249.723 4.80377 201.227C14.4501 152.732 38.2602 108.186 73.2234 73.2234C108.186 38.2603 152.732 14.4501 201.228 4.80381Z" fill="#DC3545"/>
</svg>
