<svg width="50" height="40" viewBox="0 0 50 40" fill="none" xmlns="http://www.w3.org/2000/svg">
<path fill-rule="evenodd" clip-rule="evenodd" d="M29.5996 5V8.46154L27.5083 14.3389L34.215 17.6923V14.2308H36.4145C37.2213 14.2308 37.9019 13.771 38.3616 13.0769L39.9842 9.61538L34.215 7.30769H31.9073C31.1005 5.34706 29.5996 5 29.5996 5ZM34.215 8.93029C34.562 8.93029 34.9001 9.26833 34.9001 9.61538C34.9001 9.96244 34.562 10.3005 34.215 10.3005C33.8679 10.3005 33.5299 9.96244 33.5299 9.61538C33.5299 9.26833 33.8679 8.93029 34.215 8.93029ZM11.1381 13.0769C10.8496 13.0769 10.5747 13.2076 10.3448 13.4375C9.88507 13.8972 9.88507 14.5643 10.3448 15.024L12.2919 17.0072V33.2692C12.2919 34.1932 13.0987 35 14.0227 35C14.9467 35 15.7535 34.1932 15.7535 33.2692V24.6154H29.5996V33.2692C29.5996 34.1932 30.4064 35 31.3304 35C32.2544 35 33.0611 34.1932 33.0611 33.2692V24.6154L34.215 20V19.6394L25.6693 15.3846H13.9145L11.9313 13.4375C11.7015 13.2076 11.4265 13.0769 11.1381 13.0769ZM16.9073 25.7692V29.3389L19.4313 34.0625C19.8911 34.8693 20.9322 35.2434 21.739 34.7837C22.5458 34.3239 22.9199 33.2828 22.4602 32.476L18.8544 25.7692H16.9073Z" fill="#EEEEEE"/>
<path d="M49 1H45V0H50V40H45V39H49V1ZM49 39V1H45V0H50V40H45V39H49ZM1 39V1H5V0H0V40H5V39H1ZM1 1H5V0H0V40H5V39H1V1Z" fill="#EEEEEE"/>
</svg>
